<svg width="934" height="934" viewBox="0 0 934 934" fill="none" xmlns="http://www.w3.org/2000/svg">
<rect width="934" height="934" fill="#1E1E1E"/>
<path d="M268.333 583.333H665V606.667H268.333V583.333Z" fill="black"/>
<path d="M438.667 327.573C450.266 356.98 450.266 389.688 438.667 419.095C443.729 419.688 448.823 419.99 453.921 420.001C481.285 420.053 507.968 411.496 530.208 395.553L561.312 373.334L530.208 351.116C507.968 335.173 481.281 326.621 453.921 326.668C448.822 326.678 443.729 326.98 438.667 327.574V327.573ZM467.412 355.219C464.589 349.463 466.938 342.51 472.667 339.645C478.402 336.781 485.37 339.072 488.282 344.781C497.219 362.765 497.219 383.901 488.282 401.885C485.37 407.593 478.402 409.885 472.667 407.02C466.938 404.156 464.589 397.203 467.412 391.447C473.084 380.035 473.084 366.63 467.412 355.218V355.219Z" fill="black"/>
<path d="M268.333 46.6666H315V93.3333H268.333V46.6666Z" fill="black"/>
<path d="M588.16 382.827L565.343 399.129L581.931 415.717H581.925C584.665 418.467 588.389 420.009 592.269 419.998H609.556C612.462 419.998 615.176 418.561 616.806 416.155C618.431 413.748 618.759 410.696 617.681 407.998L609.452 387.436C605.816 378.389 605.816 368.29 609.452 359.242L617.681 338.669C618.764 335.971 618.436 332.914 616.806 330.508C615.176 328.101 612.462 326.664 609.556 326.664H592.269C588.389 326.654 584.665 328.195 581.925 330.95L565.337 347.538L588.155 363.841L588.16 363.836C591.228 366.028 593.045 369.565 593.045 373.331C593.045 377.096 591.228 380.633 588.16 382.825V382.827Z" fill="black"/>
<path d="M268.333 682.507C268.344 692.168 276.172 699.996 285.833 700.007H647.5C657.161 699.996 664.989 692.168 665 682.507V630.007H268.333V682.507Z" fill="black"/>
<path d="M548.333 46.6666H595V93.3333H548.333V46.6666Z" fill="black"/>
<path d="M338.333 46.6666H385V93.3333H338.333V46.6666Z" fill="black"/>
<path d="M478.333 46.6666H525V93.3333H478.333V46.6666Z" fill="black"/>
<path d="M408.333 46.6666H455V93.3333H408.333V46.6666Z" fill="black"/>
<path d="M463.347 461.493L472.175 463.259C469.784 455.634 465.498 448.738 459.716 443.223C457.789 443.291 455.857 443.332 453.919 443.332C447.164 443.332 440.419 442.89 433.726 442.02C440.69 452.119 451.314 459.102 463.346 461.493L463.347 461.493Z" fill="black"/>
<path d="M459.72 303.44C465.501 297.924 469.788 291.034 472.178 283.404L463.35 285.17C451.319 287.56 440.694 294.545 433.73 304.639C440.423 303.769 447.168 303.332 453.924 303.326C455.856 303.332 457.788 303.373 459.721 303.441L459.72 303.44Z" fill="black"/>
<path d="M268.333 560H516.16L515.243 557.245C510.504 543.177 512.577 527.714 520.847 515.39C523.561 511.328 525.004 506.552 524.999 501.666C524.999 495.223 530.223 489.999 536.665 489.999C543.108 489.999 548.332 495.223 548.332 501.666C548.342 511.156 545.53 520.437 540.259 528.327C536.004 534.666 534.936 542.625 537.373 549.863L540.748 559.999H562.822L561.905 557.244H561.9C557.165 543.176 559.233 527.713 567.504 515.389C570.223 511.332 571.676 506.556 571.676 501.67C571.676 496.785 570.223 492.014 567.504 487.952L557.629 473.14L557.634 473.145C554.103 467.786 555.561 460.577 560.9 457.014C566.244 453.457 573.457 454.879 577.045 460.196L586.92 475.008C592.201 482.899 595.019 492.18 595.019 501.67C595.019 511.165 592.201 520.44 586.92 528.331C582.665 534.67 581.597 542.634 584.035 549.867L587.415 559.997H609.488L608.572 557.242H608.566C603.832 543.174 605.9 527.712 614.171 515.388C616.889 511.325 618.337 506.549 618.332 501.664C618.332 495.221 623.556 489.997 629.999 489.997C636.441 489.997 641.665 495.221 641.665 501.664C641.676 511.153 638.863 520.434 633.592 528.325C629.337 534.663 628.269 542.622 630.707 549.861L634.082 559.996H664.999V209.996H268.333L268.333 560ZM407.027 305.347C415.86 283.149 435.344 266.94 458.781 262.295L485.771 256.899H485.776C489.698 256.112 493.745 257.394 496.505 260.289C499.265 263.18 500.349 267.289 499.38 271.17L495.567 286.415C493.76 293.655 490.812 300.56 486.843 306.879C507.343 311.327 526.723 319.921 543.781 332.134L546.114 333.795L565.453 314.456C572.552 307.316 582.213 303.311 592.281 303.337H609.567C620.213 303.337 630.166 308.618 636.135 317.43C642.104 326.248 643.313 337.451 639.359 347.337L631.13 367.91V367.905C629.729 371.394 629.729 375.285 631.13 378.769L639.359 399.332C643.313 409.218 642.109 420.42 636.141 429.239C630.172 438.056 620.214 443.337 609.567 443.337H592.281C582.213 443.363 572.551 439.358 565.447 432.223L546.109 412.884L543.775 414.546V414.54C526.718 426.759 507.343 435.352 486.838 439.8C490.812 446.113 493.755 453.024 495.567 460.259L499.38 475.504V475.51C500.349 479.39 499.26 483.494 496.505 486.39C493.744 489.286 489.692 490.562 485.77 489.781L458.776 484.385H458.781C435.344 479.739 415.854 463.53 407.021 441.327C407.021 441.327 404.979 436.057 404.849 435.421H404.854C382.141 427.822 361.521 415.03 344.625 398.061L328.146 381.582C325.954 379.395 324.724 376.431 324.724 373.332C324.724 370.239 325.954 367.275 328.146 365.082L344.625 348.604C361.469 331.692 382.01 318.932 404.636 311.322L407.027 305.347ZM355.839 233.336C362.917 233.336 369.297 237.602 372.005 244.138C374.714 250.68 373.219 258.206 368.214 263.211C363.208 268.217 355.682 269.711 349.14 267.003C342.604 264.295 338.338 257.915 338.338 250.836C338.338 241.17 346.171 233.336 355.838 233.336L355.839 233.336ZM320.839 280.003C327.917 280.003 334.297 284.268 337.005 290.805C339.714 297.346 338.219 304.873 333.214 309.878C328.208 314.883 320.682 316.378 314.14 313.67C307.604 310.962 303.338 304.581 303.338 297.503C303.338 287.836 311.171 280.003 320.838 280.003L320.839 280.003Z" fill="black"/>
<path d="M415.387 414.28C426.892 388.197 426.892 358.477 415.387 332.395C394.881 338.681 376.236 349.916 361.105 365.113L352.881 373.337L361.105 381.561C376.236 396.759 394.881 407.993 415.387 414.28ZM394.715 358.753C400.616 358.753 405.933 362.305 408.188 367.753C410.443 373.206 409.198 379.477 405.027 383.649C400.855 387.821 394.584 389.066 389.136 386.811C383.683 384.55 380.131 379.233 380.131 373.337C380.131 365.285 386.662 358.753 394.715 358.753V358.753Z" fill="black"/>
<path d="M618.333 46.6666H665V93.3333H618.333V46.6666Z" fill="black"/>
<path d="M655.893 116.667H277.44L274.253 129.417C270.32 145.146 268.331 161.302 268.331 177.521V186.666H664.997V177.521C664.997 161.302 663.008 145.146 659.075 129.417L655.893 116.667Z" fill="black"/>
</svg>
