<svg width="397" height="654" viewBox="0 0 397 654" fill="none" xmlns="http://www.w3.org/2000/svg">
<g clip-path="url(#clip0_113_14)">
<path d="M0.00195312 536.666H396.669V560H0.00195312V536.666Z" fill="#D19A66"/>
<path d="M170.336 280.906C181.935 310.313 181.935 343.021 170.336 372.428C175.398 373.021 180.492 373.323 185.59 373.334C212.954 373.386 239.637 364.829 261.877 348.886L292.981 326.667L261.877 304.449C239.637 288.506 212.95 279.954 185.59 280.001C180.491 280.011 175.398 280.313 170.336 280.907V280.906ZM199.081 308.552C196.258 302.796 198.607 295.843 204.336 292.978C210.071 290.114 217.039 292.405 219.951 298.114C228.888 316.098 228.888 337.234 219.951 355.218C217.039 360.926 210.071 363.218 204.336 360.353C198.607 357.489 196.258 350.536 199.081 344.78C204.753 333.368 204.753 319.963 199.081 308.551V308.552Z" fill="#D19A66"/>
<path d="M0.00195312 0H46.6689V46.6667H0.00195312V0Z" fill="#D19A66"/>
<path d="M319.829 336.16L297.012 352.462L313.6 369.05H313.594C316.334 371.8 320.058 373.342 323.938 373.331H341.225C344.131 373.331 346.845 371.894 348.475 369.488C350.1 367.081 350.428 364.029 349.35 361.331L341.121 340.769C337.485 331.722 337.485 321.623 341.121 312.575L349.35 292.002C350.433 289.304 350.105 286.247 348.475 283.841C346.845 281.434 344.131 279.997 341.225 279.997H323.938C320.058 279.987 316.334 281.528 313.594 284.283L297.006 300.871L319.824 317.174L319.829 317.169C322.897 319.361 324.714 322.898 324.714 326.664C324.714 330.429 322.897 333.966 319.829 336.158V336.16Z" fill="#D19A66"/>
<path d="M0.00195312 635.84C0.0129531 645.501 7.84095 653.329 17.502 653.34H379.169C388.83 653.329 396.658 645.501 396.669 635.84V583.34H0.00195312V635.84Z" fill="#D19A66"/>
<path d="M280.002 0H326.669V46.6667H280.002V0Z" fill="#D19A66"/>
<path d="M70.002 0H116.669V46.6667H70.002V0Z" fill="#D19A66"/>
<path d="M210.002 0H256.669V46.6667H210.002V0Z" fill="#D19A66"/>
<path d="M140.002 0H186.669V46.6667H140.002V0Z" fill="#D19A66"/>
<path d="M195.016 414.826L203.844 416.592C201.453 408.967 197.167 402.071 191.385 396.556C189.458 396.624 187.526 396.665 185.588 396.665C178.833 396.665 172.088 396.223 165.395 395.353C172.359 405.452 182.983 412.435 195.015 414.826H195.016Z" fill="#D19A66"/>
<path d="M191.389 256.773C197.17 251.257 201.457 244.367 203.847 236.737L195.019 238.503C182.988 240.893 172.363 247.878 165.399 257.972C172.092 257.102 178.837 256.665 185.593 256.659C187.525 256.665 189.457 256.706 191.39 256.774L191.389 256.773Z" fill="#D19A66"/>
<path d="M0.00195312 513.333H247.829L246.912 510.578C242.173 496.51 244.246 481.047 252.516 468.723C255.23 464.661 256.673 459.885 256.668 454.999C256.668 448.556 261.892 443.332 268.334 443.332C274.777 443.332 280.001 448.556 280.001 454.999C280.011 464.489 277.199 473.77 271.928 481.66C267.673 487.999 266.605 495.958 269.042 503.196L272.417 513.332H294.491L293.574 510.577H293.569C288.834 496.509 290.902 481.046 299.173 468.722C301.892 464.665 303.345 459.889 303.345 455.003C303.345 450.118 301.892 445.347 299.173 441.285L289.298 426.473L289.303 426.478C285.772 421.119 287.23 413.91 292.569 410.347C297.913 406.79 305.126 408.212 308.714 413.529L318.589 428.341C323.87 436.232 326.688 445.513 326.688 455.003C326.688 464.498 323.87 473.773 318.589 481.664C314.334 488.003 313.266 495.967 315.704 503.2L319.084 513.33H341.157L340.241 510.575H340.235C335.501 496.507 337.569 481.045 345.84 468.721C348.558 464.658 350.006 459.882 350.001 454.997C350.001 448.554 355.225 443.33 361.668 443.33C368.11 443.33 373.334 448.554 373.334 454.997C373.345 464.486 370.532 473.767 365.261 481.658C361.006 487.996 359.938 495.955 362.376 503.194L365.751 513.329H396.668V163.329H0.00195312V513.333ZM138.696 258.68C147.529 236.482 167.013 220.273 190.45 215.628L217.44 210.232H217.445C221.367 209.445 225.414 210.727 228.174 213.622C230.934 216.513 232.018 220.622 231.049 224.503L227.236 239.748C225.429 246.988 222.481 253.893 218.512 260.212C239.012 264.66 258.392 273.254 275.45 285.467L277.783 287.128L297.122 267.789C304.221 260.649 313.882 256.644 323.95 256.67H341.236C351.882 256.67 361.835 261.951 367.804 270.763C373.773 279.581 374.982 290.784 371.028 300.67L362.799 321.243V321.238C361.398 324.727 361.398 328.618 362.799 332.102L371.028 352.665C374.982 362.551 373.778 373.753 367.81 382.572C361.841 391.389 351.883 396.67 341.236 396.67H323.95C313.882 396.696 304.22 392.691 297.116 385.556L277.778 366.217L275.444 367.879V367.873C258.387 380.092 239.012 388.685 218.507 393.133C222.481 399.446 225.424 406.357 227.236 413.592L231.049 428.837V428.843C232.018 432.723 230.929 436.827 228.174 439.723C225.413 442.619 221.361 443.895 217.439 443.114L190.445 437.718H190.45C167.013 433.072 147.523 416.863 138.69 394.66C138.69 394.66 136.648 389.39 136.518 388.754H136.523C113.81 381.155 93.1899 368.363 76.2939 351.394L59.8149 334.915C57.6229 332.728 56.3929 329.764 56.3929 326.665C56.3929 323.572 57.6229 320.608 59.8149 318.415L76.2939 301.937C93.1379 285.025 113.679 272.265 136.305 264.655L138.696 258.68ZM87.5079 186.669C94.5859 186.669 100.966 190.935 103.674 197.471C106.383 204.013 104.888 211.539 99.8829 216.544C94.8769 221.55 87.351 223.044 80.809 220.336C74.273 217.628 70.007 211.248 70.007 204.169C70.007 194.503 77.84 186.669 87.507 186.669H87.5079ZM52.5079 233.336C59.5859 233.336 65.966 237.601 68.674 244.138C71.383 250.679 69.8879 258.206 64.8829 263.211C59.8769 268.216 52.351 269.711 45.809 267.003C39.273 264.295 35.007 257.914 35.007 250.836C35.007 241.169 42.84 233.336 52.507 233.336H52.5079Z" fill="#D19A66"/>
<path d="M147.056 367.613C158.561 341.53 158.561 311.81 147.056 285.728C126.55 292.014 107.905 303.249 92.7738 318.446L84.5498 326.67L92.7738 334.894C107.905 350.092 126.55 361.326 147.056 367.613ZM126.384 312.086C132.285 312.086 137.602 315.638 139.857 321.086C142.112 326.539 140.867 332.81 136.696 336.982C132.524 341.154 126.253 342.399 120.805 340.144C115.352 337.883 111.8 332.566 111.8 326.67C111.8 318.618 118.331 312.086 126.384 312.086Z" fill="#D19A66"/>
<path d="M350.002 0H396.669V46.6667H350.002V0Z" fill="#D19A66"/>
<path d="M387.562 70.0005H9.10901L5.922 82.7505C1.989 98.4795 0 114.635 0 130.854V139.999H396.666V130.854C396.666 114.635 394.677 98.4795 390.744 82.7505L387.562 70.0005Z" fill="#D19A66"/>
</g>
<defs>
<clipPath id="clip0_113_14">
<rect width="397" height="654" fill="white"/>
</clipPath>
</defs>
</svg>
