<svg width="38" height="41" viewBox="0 0 38 41" fill="none" xmlns="http://www.w3.org/2000/svg">
<g clip-path="url(#clip0_113_9)">
<path d="M-47.5 39.5L-26 36.5L-23 24L-5.5 19.5L-21 20.5L-30.5 10.5V30L-31.5 25L-47.5 39.5ZM19.5 40.5C14.9333 40.5 11.125 38.9333 8.075 35.8C5.025 32.6667 3.5 28.7667 3.5 24.1C3.5 20.7667 4.825 17.1417 7.475 13.225C10.125 9.30833 14.1333 5.06667 19.5 0.5C24.8667 5.06667 28.875 9.30833 31.525 13.225C34.175 17.1417 35.5 20.7667 35.5 24.1C35.5 28.7667 33.975 32.6667 30.925 35.8C27.875 38.9333 24.0667 40.5 19.5 40.5ZM19.5 37.5C23.2333 37.5 26.3333 36.225 28.8 33.675C31.2667 31.125 32.5 27.9333 32.5 24.1C32.5 21.4667 31.3917 18.475 29.175 15.125C26.9583 11.775 23.7333 8.23333 19.5 4.5C15.2667 8.23333 12.0417 11.775 9.825 15.125C7.60833 18.475 6.5 21.4667 6.5 24.1C6.5 27.9333 7.73333 31.125 10.2 33.675C12.6667 36.225 15.7667 37.5 19.5 37.5Z" fill="#61AFEF"/>
<path d="M6 24.2C6 31.6559 12.0441 37.7 19.5 37.7C26.9559 37.7 33 31.6559 33 24.2C33 24.2 24.9 26.9 19.5 24.2C14.1 21.5 6 24.2 6 24.2Z" fill="#61AFEF" fill-opacity="0.5"/>
<path d="M6 24.2L5.68377 23.2513C5.27543 23.3874 5 23.7696 5 24.2C5 32.2082 11.4918 38.7 19.5 38.7C27.5082 38.7 34 32.2082 34 24.2C34 23.8786 33.8455 23.5767 33.5847 23.3888C33.324 23.2009 32.989 23.1497 32.6841 23.2512L32.6838 23.2513L32.6816 23.252L32.668 23.2565C32.6551 23.2607 32.6347 23.2672 32.6071 23.2759C32.5519 23.2933 32.468 23.3192 32.3581 23.3517C32.1381 23.4167 31.8142 23.5079 31.4075 23.6095C30.5926 23.8133 29.4519 24.0576 28.151 24.2202C25.5104 24.5503 22.3784 24.5211 19.9472 23.3056C16.9784 21.8211 13.3604 21.8503 10.601 22.1952C9.20187 22.3701 7.98008 22.632 7.10746 22.8502C6.67049 22.9594 6.31932 23.0581 6.07525 23.1302C5.95317 23.1663 5.85775 23.1958 5.79165 23.2166C5.7586 23.227 5.73286 23.2353 5.71477 23.2412L5.69342 23.2481L5.68711 23.2502L5.68507 23.2509L5.68433 23.2511C5.68404 23.2512 5.68377 23.2513 6 24.2Z" stroke="#61AFEF" stroke-opacity="0.75" stroke-width="2" stroke-linejoin="round"/>
</g>
<defs>
<clipPath id="clip0_113_9">
<rect width="38" height="41" fill="white"/>
</clipPath>
</defs>
</svg>
