<svg width="20" height="38" viewBox="0 0 20 38" fill="none" xmlns="http://www.w3.org/2000/svg">
<path d="M10.1 37C7.6 37 5.45833 36.1083 3.675 34.325C1.89167 32.5417 1 30.4 1 27.9C1 26.3 1.4 24.7833 2.2 23.35C3 21.9167 4.1 20.7667 5.5 19.9V5.6C5.5 4.33333 5.95 3.25 6.85 2.35C7.75 1.45 8.83333 1 10.1 1C11.3667 1 12.45 1.45 13.35 2.35C14.25 3.25 14.7 4.33333 14.7 5.6V19.9C16.1 20.7667 17.2 21.9167 18 23.35C18.8 24.7833 19.2 26.3 19.2 27.9C19.2 30.4 18.3083 32.5417 16.525 34.325C14.7417 36.1083 12.6 37 10.1 37ZM8.5 14.55H11.7V5.6C11.7 5.13333 11.55 4.75 11.25 4.45C10.95 4.15 10.5667 4 10.1 4C9.63333 4 9.25 4.15 8.95 4.45C8.65 4.75 8.5 5.13333 8.5 5.6V14.55Z" fill="#ABB2BF" fill-opacity="0.5" stroke="#ABB2BF" stroke-width="1.5"/>
</svg>
