<svg width="36" height="41" viewBox="0 0 36 41" fill="none" xmlns="http://www.w3.org/2000/svg">
<path d="M-47.5 39.5L-26 36.5L-23 24L-5.5 19.5L-21 20.5L-30.5 10.5V30L-31.5 25L-47.5 39.5ZM19.5 40.5C14.9333 40.5 11.125 38.9333 8.075 35.8C5.025 32.6667 3.5 28.7667 3.5 24.1C3.5 20.7667 4.825 17.1417 7.475 13.225C10.125 9.30833 14.1333 5.06667 19.5 0.5C24.8667 5.06667 28.875 9.30833 31.525 13.225C34.175 17.1417 35.5 20.7667 35.5 24.1C35.5 28.7667 33.975 32.6667 30.925 35.8C27.875 38.9333 24.0667 40.5 19.5 40.5ZM19.5 37.5C23.2333 37.5 26.3333 36.225 28.8 33.675C31.2667 31.125 32.5 27.9333 32.5 24.1C32.5 21.4667 31.3917 18.475 29.175 15.125C26.9583 11.775 23.7333 8.23333 19.5 4.5C15.2667 8.23333 12.0417 11.775 9.825 15.125C7.60833 18.475 6.5 21.4667 6.5 24.1C6.5 27.9333 7.73333 31.125 10.2 33.675C12.6667 36.225 15.7667 37.5 19.5 37.5Z" fill="black"/>
<path d="M6 24.2C6 31.6559 12.0441 37.7 19.5 37.7C26.9559 37.7 33 31.6559 33 24.2C33 24.2 24.9 26.9 19.5 24.2C14.1 21.5 6 24.2 6 24.2Z" fill="black" stroke="black" stroke-width="4" stroke-linejoin="round"/>
</svg>
