<svg width="40" height="40" viewBox="0 0 40 40" fill="none" xmlns="http://www.w3.org/2000/svg">
<path d="M15 39.95C10.6667 39.6833 7.08333 38.0167 4.25 34.95C1.41667 31.8833 0 28.1 0 23.6C0 20.2667 1.325 16.6417 3.975 12.725C6.625 8.80833 10.6333 4.56667 16 0C21.3667 4.56667 25.375 8.80833 28.025 12.725C30.675 16.6417 32 20.2667 32 23.6V24.3C32 24.5333 31.9833 24.7667 31.95 25H28.95C28.9833 24.7667 29 24.5333 29 24.3V23.6C29 20.9667 27.8917 17.975 25.675 14.625C23.4583 11.275 20.2333 7.73333 16 4C11.7667 7.73333 8.54167 11.275 6.325 14.625C4.10833 17.975 3 20.9667 3 23.6C3 27.2333 4.13333 30.3 6.4 32.8C8.66667 35.3 11.5333 36.6833 15 36.95V39.95ZM18 40V28H25.6C26.2667 28 26.8333 28.2333 27.3 28.7C27.7667 29.1667 28 29.7333 28 30.4V33.6C28 34.2667 27.7667 34.8333 27.3 35.3C26.8333 35.7667 26.2667 36 25.6 36H20.4V40H18ZM29.9 40V28H32.3V32.45H37.7V28H40.1V40H37.7V34.85H32.3V40H29.9ZM20.4 33.6H25.6V30.4H20.4V33.6Z" fill="#FDFCFA"/>
</svg>
